{
  "accessors": [
    {
      "bufferView": 2,
      "componentType": 5126,
      "count": 10510,
      "max": [
        0.9938790202140808,
        0.02243500016629696,
        0.18932700157165527
      ],
      "min": [
        -0.9938759803771973,
        -0.02243500016629696,
        -0.08264800161123276
      ],
      "type": "VEC3"
    },
    {
      "bufferView": 2,
      "byteOffset": 126120,
      "componentType": 5126,
      "count": 10510,
      "max": [
        1.0,
        0.9809983372688293,
        0.9986546635627747
      ],
      "min": [
        -1.0,
        -0.9810012578964233,
        -0.999469518661499
      ],
      "type": "VEC3"
    },
    {
      "bufferView": 1,
      "componentType": 5126,
      "count": 10510,
      "max": [
        0.9993100166320801,
        1.9988700151443481
      ],
      "min": [
        0.5011829733848572,
        1.5016900300979614
      ],
      "type": "VEC2"
    },
    {
      "bufferView": 0,
      "componentType": 5125,
      "count": 13140,
      "type": "SCALAR"
    },
    {
      "bufferView": 2,
      "byteOffset": 252240,
      "componentType": 5126,
      "count": 8279,
      "max": [
        1.09607994556427,
        0.02243500016629696,
        0.46517300605773926
      ],
      "min": [
        -1.09607994556427,
        -0.02243500016629696,
        0.3165859878063202
      ],
      "type": "VEC3"
    },
    {
      "bufferView": 2,
      "byteOffset": 351588,
      "componentType": 5126,
      "count": 8279,
      "max": [
        1.0,
        0.9809723496437073,
        1.0
      ],
      "min": [
        -1.0,
        -0.9809723496437073,
        -1.0
      ],
      "type": "VEC3"
    },
    {
      "bufferView": 1,
      "byteOffset": 84080,
      "componentType": 5126,
      "count": 8279,
      "max": [
        0.9994739890098572,
        1.9989900588989258
      ],
      "min": [
        0.5010309815406799,
        1.5014699697494507
      ],
      "type": "VEC2"
    },
    {
      "bufferView": 0,
      "byteOffset": 52560,
      "componentType": 5125,
      "count": 12276,
      "type": "SCALAR"
    }
  ],
  "asset": {
    "extras": {
      "author": "x-infusion LTD (https://sketchfab.com/zerofaucet)",
      "license": "CC-BY-4.0 (http://creativecommons.org/licenses/by/4.0/)",
      "source": "https://sketchfab.com/3d-models/fairy-lights-3ed60b0028a64081978ebdbba2b24d8b",
      "title": "Fairy Lights"
    },
    "generator": "Sketchfab-12.29.0",
    "version": "2.0"
  },
  "bufferViews": [
    {
      "buffer": 0,
      "byteLength": 101664,
      "name": "floatBufferViews",
      "target": 34963
    },
    {
      "buffer": 0,
      "byteLength": 150312,
      "byteOffset": 101664,
      "byteStride": 8,
      "name": "floatBufferViews",
      "target": 34962
    },
    {
      "buffer": 0,
      "byteLength": 450936,
      "byteOffset": 251976,
      "byteStride": 12,
      "name": "floatBufferViews",
      "target": 34962
    }
  ],
  "buffers": [
    {
      "byteLength": 702912,
      "uri": "scene.bin"
    }
  ],
  "images": [
    {
      "uri": "textures/FairyLights1_baseColor.jpeg"
    }
  ],
  "materials": [
    {
      "doubleSided": true,
      "name": "FairyLights1",
      "pbrMetallicRoughness": {
        "baseColorTexture": {
          "index": 0
        },
        "metallicFactor": 0.0,
        "roughnessFactor": 0.8434915419926713
      }
    },
    {
      "doubleSided": true,
      "name": "FairyLights2",
      "pbrMetallicRoughness": {
        "baseColorTexture": {
          "index": 0
        },
        "metallicFactor": 0.0,
        "roughnessFactor": 0.8434915419926713
      }
    }
  ],
  "meshes": [
    {
      "name": "Object_0",
      "primitives": [
        {
          "attributes": {
            "NORMAL": 1,
            "POSITION": 0,
            "TEXCOORD_0": 2
          },
          "indices": 3,
          "material": 0,
          "mode": 4
        }
      ]
    },
    {
      "name": "Object_1",
      "primitives": [
        {
          "attributes": {
            "NORMAL": 5,
            "POSITION": 4,
            "TEXCOORD_0": 6
          },
          "indices": 7,
          "material": 1,
          "mode": 4
        }
      ]
    }
  ],
  "nodes": [
    {
      "children": [
        1
      ],
      "matrix": [
        1.0,
        0.0,
        0.0,
        0.0,
        0.0,
        2.220446049250313e-16,
        -1.0,
        0.0,
        0.0,
        1.0,
        2.220446049250313e-16,
        0.0,
        0.0,
        0.0,
        0.0,
        1.0
      ],
      "name": "Sketchfab_model"
    },
    {
      "children": [
        2,
        3
      ],
      "name": "model.obj.cleaner.materialmerger.gles"
    },
    {
      "mesh": 0,
      "name": "Object_2"
    },
    {
      "mesh": 1,
      "name": "Object_3"
    }
  ],
  "samplers": [
    {
      "magFilter": 9729,
      "minFilter": 9987,
      "wrapS": 10497,
      "wrapT": 10497
    }
  ],
  "scene": 0,
  "scenes": [
    {
      "name": "Sketchfab_Scene",
      "nodes": [
        0
      ]
    }
  ],
  "textures": [
    {
      "sampler": 0,
      "source": 0
    }
  ]
}
