{
  "accessors": [
    {
      "bufferView": 2,
      "componentType": 5126,
      "count": 3388,
      "max": [
        -12.127182960510254,
        0.20021100342273712,
        0.8714630007743835
      ],
      "min": [
        -23.67263412475586,
        -0.36040198802948,
        -1.6183010339736938
      ],
      "type": "VEC3"
    },
    {
      "bufferView": 2,
      "byteOffset": 40656,
      "componentType": 5126,
      "count": 3388,
      "max": [
        0.9998008608818054,
        0.9975031018257141,
        0.9996535181999207
      ],
      "min": [
        -0.9996500611305237,
        -0.9998855590820313,
        -0.9997428059577942
      ],
      "type": "VEC3"
    },
    {
      "bufferView": 1,
      "componentType": 5126,
      "count": 3388,
      "max": [
        1.0,
        1.0
      ],
      "min": [
        -0.5263159871101379,
        0.0
      ],
      "type": "VEC2"
    },
    {
      "bufferView": 0,
      "componentType": 5125,
      "count": 17280,
      "type": "SCALAR"
    },
    {
      "bufferView": 2,
      "byteOffset": 81312,
      "componentType": 5126,
      "count": 780,
      "max": [
        -11.995630264282227,
        0.1475840061903,
        1.3934500217437744
      ],
      "min": [
        -24.10500717163086,
        -0.31675198674201965,
        -0.6397179961204529
      ],
      "type": "VEC3"
    },
    {
      "bufferView": 2,
      "byteOffset": 90672,
      "componentType": 5126,
      "count": 780,
      "max": [
        0.998566746711731,
        0.9996376633644104,
        0.9992367029190063
      ],
      "min": [
        -0.9922814965248108,
        -0.9988216757774353,
        -0.9947423338890076
      ],
      "type": "VEC3"
    },
    {
      "bufferView": 1,
      "byteOffset": 27104,
      "componentType": 5126,
      "count": 780,
      "max": [
        1.0,
        1.0
      ],
      "min": [
        -0.5263159871101379,
        0.009999999776482582
      ],
      "type": "VEC2"
    },
    {
      "bufferView": 0,
      "byteOffset": 69120,
      "componentType": 5125,
      "count": 2232,
      "type": "SCALAR"
    },
    {
      "bufferView": 2,
      "byteOffset": 100032,
      "componentType": 5126,
      "count": 2448,
      "max": [
        -11.839668273925781,
        0.03747899830341339,
        1.3012299537658691
      ],
      "min": [
        -24.701568603515625,
        -0.12773099541664124,
        -0.37862899899482727
      ],
      "type": "VEC3"
    },
    {
      "bufferView": 2,
      "byteOffset": 129408,
      "componentType": 5126,
      "count": 2448,
      "max": [
        0.9204951524734497,
        0.9999250173568726,
        0.9997696280479431
      ],
      "min": [
        -0.590290904045105,
        -0.9999328851699829,
        -0.9997647404670715
      ],
      "type": "VEC3"
    },
    {
      "bufferView": 0,
      "byteOffset": 78048,
      "componentType": 5125,
      "count": 14538,
      "type": "SCALAR"
    }
  ],
  "asset": {
    "extras": {
      "author": "laha_pictures (https://sketchfab.com/laha_pictures)",
      "license": "CC-BY-4.0 (http://creativecommons.org/licenses/by/4.0/)",
      "source": "https://sketchfab.com/3d-models/fairy-lights-decoration-asset-3cd0d1acf84b44a6a046adbbb1dfc7e9",
      "title": "Fairy lights - decoration asset"
    },
    "generator": "Sketchfab-11.67.0",
    "version": "2.0"
  },
  "bufferViews": [
    {
      "buffer": 0,
      "byteLength": 136200,
      "name": "floatBufferViews",
      "target": 34963
    },
    {
      "buffer": 0,
      "byteLength": 33344,
      "byteOffset": 136200,
      "byteStride": 8,
      "name": "floatBufferViews",
      "target": 34962
    },
    {
      "buffer": 0,
      "byteLength": 158784,
      "byteOffset": 169544,
      "byteStride": 12,
      "name": "floatBufferViews",
      "target": 34962
    }
  ],
  "buffers": [
    {
      "byteLength": 328328,
      "uri": "scene.bin"
    }
  ],
  "materials": [
    {
      "doubleSided": true,
      "name": "Material.001",
      "pbrMetallicRoughness": {
        "baseColorFactor": [
          0.8,
          0.8,
          0.8,
          1.0
        ],
        "metallicFactor": 0.0,
        "roughnessFactor": 0.7880318375580224
      }
    },
    {
      "doubleSided": true,
      "name": "Material.003",
      "pbrMetallicRoughness": {
        "baseColorFactor": [
          0.063721,
          0.063721,
          0.063721,
          1.0
        ],
        "metallicFactor": 0.0,
        "roughnessFactor": 0.6348701969127705
      }
    },
    {
      "doubleSided": true,
      "name": "Material.004",
      "pbrMetallicRoughness": {
        "baseColorFactor": [
          0.342384,
          0.342384,
          0.342384,
          1.0
        ],
        "metallicFactor": 0.0,
        "roughnessFactor": 0.8063508326896291
      }
    }
  ],
  "meshes": [
    {
      "name": "Object_0",
      "primitives": [
        {
          "attributes": {
            "NORMAL": 1,
            "POSITION": 0,
            "TEXCOORD_0": 2
          },
          "indices": 3,
          "material": 0,
          "mode": 4
        }
      ]
    },
    {
      "name": "Object_1",
      "primitives": [
        {
          "attributes": {
            "NORMAL": 5,
            "POSITION": 4,
            "TEXCOORD_0": 6
          },
          "indices": 7,
          "material": 1,
          "mode": 4
        }
      ]
    },
    {
      "name": "Object_2",
      "primitives": [
        {
          "attributes": {
            "NORMAL": 9,
            "POSITION": 8
          },
          "indices": 10,
          "material": 2,
          "mode": 4
        }
      ]
    }
  ],
  "nodes": [
    {
      "children": [
        1
      ],
      "matrix": [
        1.0,
        0.0,
        0.0,
        0.0,
        0.0,
        2.220446049250313e-16,
        -1.0,
        0.0,
        0.0,
        1.0,
        2.220446049250313e-16,
        0.0,
        0.0,
        0.0,
        0.0,
        1.0
      ],
      "name": "Sketchfab_model"
    },
    {
      "children": [
        2,
        3,
        4
      ],
      "name": "fairy lights.obj.cleaner.materialmerger.gles"
    },
    {
      "mesh": 0,
      "name": "Object_2"
    },
    {
      "mesh": 1,
      "name": "Object_3"
    },
    {
      "mesh": 2,
      "name": "Object_4"
    }
  ],
  "scene": 0,
  "scenes": [
    {
      "name": "Sketchfab_Scene",
      "nodes": [
        0
      ]
    }
  ]
}
